HIERARCHY
ROOT Hips
{
	OFFSET	0.00	0.00	0.00
	CHANNELS 6 Xposition Yposition Zposition Zrotation Xrotation Yrotation
	JOINT LeftUpLeg
	{
		OFFSET	 0.126116	-0.014019	-0.065224
		CHANNELS 3 Zrotation Xrotation Yrotation
		JOINT LeftLeg
		{
			OFFSET	 0.000000	 0.000000	 0.569914
			CHANNELS 3 Zrotation Xrotation Yrotation
			JOINT LeftFoot
			{
				OFFSET	 0.000000	 0.000000	 0.544423
				CHANNELS 3 Zrotation Xrotation Yrotation
				JOINT LeftToeBase
				{
					OFFSET	 0.000000	 0.000000	 0.207117
					CHANNELS 3 Zrotation Xrotation Yrotation
					End Site
					{
						OFFSET	 0.000000	 0.000000	 0.207117
					}
				}
			}
		}
	}
	JOINT RightUpLeg
	{
		OFFSET	-0.124023	-0.008373	-0.065224
		CHANNELS 3 Zrotation Xrotation Yrotation
		JOINT RightLeg
		{
			OFFSET	 0.000000	 0.000000	 0.570047
			CHANNELS 3 Zrotation Xrotation Yrotation
			JOINT RightFoot
			{
				OFFSET	 0.000000	 0.000000	 0.544354
				CHANNELS 3 Zrotation Xrotation Yrotation
				JOINT RightToeBase
				{
					OFFSET	 0.000000	 0.000000	 0.207540
					CHANNELS 3 Zrotation Xrotation Yrotation
					End Site
					{
						OFFSET	 0.000000	 0.000000	 0.207540
					}
				}
			}
		}
	}
	JOINT Spine
	{
		OFFSET	 0.000184	-0.007763	 0.117403
		CHANNELS 3 Zrotation Xrotation Yrotation
		JOINT Spine1
		{
			OFFSET	 0.000000	 0.000000	 0.137269
			CHANNELS 3 Zrotation Xrotation Yrotation
			JOINT Spine2
			{
				OFFSET	 0.000000	 0.000000	 0.156879
				CHANNELS 3 Zrotation Xrotation Yrotation
				JOINT LeftShoulder
				{
					OFFSET	 0.080501	-0.002496	 0.160144
					CHANNELS 3 Zrotation Xrotation Yrotation
					JOINT LeftArm
					{
						OFFSET	 0.000000	 0.000000	 0.164363
						CHANNELS 3 Zrotation Xrotation Yrotation
						JOINT LeftForeArm
						{
							OFFSET	 0.000000	 0.000000	 0.364576
							CHANNELS 3 Zrotation Xrotation Yrotation
							JOINT LeftHand
							{
								OFFSET	 0.000000	 0.000000	 0.360812
								CHANNELS 3 Zrotation Xrotation Yrotation
								JOINT LeftHandIndex1
								{
									OFFSET	 0.000000	 0.000000	 0.086006
									CHANNELS 3 Zrotation Xrotation Yrotation
									JOINT LeftHandIndex2
									{
										OFFSET	 0.000000	 0.000000	 0.047236
										CHANNELS 3 Zrotation Xrotation Yrotation
										JOINT LeftHandIndex3
										{
											OFFSET	-0.004284	-0.000551	 0.038166
											CHANNELS 3 Zrotation Xrotation Yrotation
											End Site
											{
												OFFSET	-0.004284	-0.000551	 0.038166
											}
										}
									}
								}
							}
						}
					}
				}
				JOINT Neck
				{
					OFFSET	 0.000000	 0.000000	 0.176489
					CHANNELS 3 Zrotation Xrotation Yrotation
					JOINT Head
					{
						OFFSET	 0.000000	-0.001747	 0.077940
						CHANNELS 3 Zrotation Xrotation Yrotation
						End Site
						{
							OFFSET	 0.000000	-0.001747	 0.077940
						}
					}
				}
				JOINT RightShoulder
				{
					OFFSET	-0.080363	 0.000306	 0.159706
					CHANNELS 3 Zrotation Xrotation Yrotation
					JOINT RightArm
					{
						OFFSET	 0.000000	 0.000000	 0.164196
						CHANNELS 3 Zrotation Xrotation Yrotation
						JOINT RightForeArm
						{
							OFFSET	 0.000000	 0.000000	 0.365611
							CHANNELS 3 Zrotation Xrotation Yrotation
							JOINT RightHand
							{
								OFFSET	 0.000000	 0.000000	 0.360648
								CHANNELS 3 Zrotation Xrotation Yrotation
								JOINT RightHandIndex1
								{
									OFFSET	 0.000000	 0.000000	 0.069977
									CHANNELS 3 Zrotation Xrotation Yrotation
									JOINT RightHandIndex2
									{
										OFFSET	 0.000000	 0.000000	 0.052305
										CHANNELS 3 Zrotation Xrotation Yrotation
										JOINT RightHandIndex3
										{
											OFFSET	 0.009002	-0.000782	 0.042196
											CHANNELS 3 Zrotation Xrotation Yrotation
											End Site
											{
												OFFSET	 0.009002	-0.000782	 0.042196
											}
										}
									}
								}
							}
						}
					}
				}
			}
		}
	}
}
MOTION
Frames:    13
Frame Time: 0.03333334
-0.058114	-2.205788	 1.161971	 4.571616	-1.626921	-3.673023	 0.903821	-18.021180	-170.539600	 0.739623	-49.685140	 0.251037	 82.972750	 82.623280	-87.061260	-2.370537	 31.423460	-0.065592	-2.416306	-34.868900	-174.244700	 13.335720	-60.543340	 12.331370	 20.337460	 76.525410	-16.500200	 2.358325	 33.094670	 0.105425	 0.474034	 8.838150	 0.842852	 1.849001	 3.255876	 3.335417	-9.110063	-2.769253	-4.263635	-93.853050	 58.932810	 175.574100	 24.786810	 45.410390	-21.973380	-1.222684	-2.365283	-21.047010	 0.979823	-4.699776	-6.626038	-4.869263	 19.244320	-2.786484	-3.887396	 21.397680	 2.208720	-4.808259	 5.545542	 0.146964	-0.100930	-5.045262	 0.171379	-11.079970	 1.612655	 2.086087	 89.805760	 61.615430	-179.943700	-19.356750	 50.672070	 8.755134	-1.383107	-2.795337	 14.427740	-4.933695	 9.705620	 0.676917	 6.298955	 25.415980	-0.558479	 1.810239	 45.301860	-6.925912	 0.444172	 24.635160	 3.610087
-0.058932	-2.221363	 1.162203	 5.527556	-1.001182	-3.693757	-0.104495	-17.840240	-170.644100	 1.314218	-49.408520	 0.730163	 83.018090	 82.695690	-87.506000	-2.368865	 31.703700	-0.071937	-4.781037	-36.736070	-174.319400	 14.088880	-58.275960	 12.706520	 44.854180	 82.043100	-42.418430	 2.358975	 32.999960	 0.103221	-0.042618	 8.463550	 0.670224	 1.931046	 2.883525	 3.627342	-9.518839	-2.716021	-4.420196	-94.056400	 59.017980	 175.129500	 25.120400	 44.377510	-22.254330	-1.944726	-2.287735	-22.894760	 1.616488	-5.030969	-7.884391	-4.865869	 19.334850	-2.793150	-3.877563	 21.523450	 2.198730	-4.805846	 5.573893	 0.145306	-0.049513	-5.097276	 0.216206	-11.311050	 1.557872	 1.863214	 89.735210	 61.702740	 179.887900	-18.792180	 51.082460	 7.483280	-1.844433	-2.911543	 14.394030	-5.085640	 10.318440	 0.413797	 6.282394	 23.983960	-0.545553	 1.992505	 43.820800	-7.088255	 0.711966	 23.455640	 3.475243
-0.059626	-2.241064	 1.162019	 6.244250	-0.184885	-3.877718	-0.775729	-17.520990	-170.605000	 1.670544	-48.996130	 0.994596	 85.368550	 82.848760	-90.060850	-2.366894	 32.025740	-0.079265	-6.615510	-38.965130	-174.321500	 14.654470	-55.209960	 12.756740	 89.325060	 82.635880	-88.701240	 2.360094	 32.833530	 0.099361	-0.410954	 7.855968	 0.630815	 1.967721	 2.724803	 3.925788	-9.783404	-2.754269	-4.569289	-94.270340	 58.987860	 174.677500	 24.924510	 43.060600	-22.237940	-2.532077	-2.283018	-25.321480	 2.047099	-5.602150	-8.113865	-4.854837	 19.608680	-2.809568	-3.861545	 21.727590	 2.182448	-4.797352	 5.674063	 0.139440	-0.014532	-5.146486	 0.281678	-11.451410	 1.521609	 1.750820	 89.628040	 61.833520	 179.630200	-18.164840	 51.544120	 6.159846	-2.748729	-3.111970	 14.211030	-5.481695	 10.979070	-0.181742	 6.255081	 22.211290	-0.586712	 2.172412	 42.271420	-7.247095	 1.088981	 21.753220	 3.293201
-0.059960	-2.264403	 1.161009	 6.560247	 0.446242	-4.209075	-1.037580	-16.685440	-170.431200	 1.879960	-48.466150	 1.143364	 89.716550	 82.965050	-94.543860	-2.362704	 32.679630	-0.094256	-6.663274	-40.856180	-173.909000	 14.284390	-51.542640	 11.927960	 113.345000	 79.253780	-114.231200	 2.358124	 33.124340	 0.106115	-0.640959	 7.362558	 0.800835	 1.997086	 2.685623	 4.016354	-9.823933	-2.460417	-4.522001	-94.425140	 58.910460	 174.359900	 24.067810	 41.470390	-22.289430	-3.329774	-2.140517	-28.021100	 1.857469	-6.109803	-7.556491	-4.837004	 19.995760	-2.821465	-3.838856	 22.014830	 2.159409	-4.781732	 5.857640	 0.128640	 0.007242	-5.225623	 0.329646	-11.467330	 1.716395	 1.744611	 89.504970	 61.974490	 179.331500	-17.361790	 51.990650	 5.075064	-4.039098	-3.375952	 13.894920	-5.899879	 11.585580	-1.340841	 6.219068	 20.223500	-0.660587	 2.380788	 40.359710	-7.429121	 1.521317	 19.741740	 3.096196
-0.060523	-2.292101	 1.158947	 6.743923	 0.708484	-4.484702	-1.285170	-15.199390	-170.355900	 2.056607	-47.909760	 1.264612	 90.464790	 83.073070	-95.371710	-2.352224	 34.177710	-0.129249	-5.411572	-42.037980	-173.071500	 13.441190	-47.136960	 10.506750	 125.048300	 74.498540	-126.862800	 2.346600	 34.699940	 0.143317	-1.055151	 7.199965	 0.979422	 1.992832	 2.723139	 3.979114	-9.651148	-2.103647	-4.354153	-94.507730	 58.871620	 174.190600	 22.529510	 39.916740	-22.427040	-3.813108	-2.086087	-30.534920	 1.496372	-6.501856	-7.294799	-4.829392	 20.338080	-2.879164	-3.811144	 22.362780	 2.131257	-4.757689	 6.139384	 0.111964	 0.049913	-5.321105	 0.348629	-11.273810	 2.016847	 1.671124	 89.410600	 62.022560	 179.102100	-16.302660	 52.383270	 3.689981	-5.398938	-3.689539	 13.735360	-6.048365	 11.808190	-2.781028	 6.182279	 18.069260	-0.713196	 2.657373	 37.609440	-7.667090	 1.977203	 17.554110	 2.902772
-0.062003	-2.324455	 1.155779	 7.025959	 0.702757	-4.576043	-1.791282	-13.210160	-170.547100	 2.419637	-47.351590	 1.520576	 83.662840	 83.218750	-88.683300	-2.326802	 37.217960	-0.203419	-4.841275	-42.660180	-172.617600	 12.892810	-41.910430	 9.214518	 113.738700	 74.880320	-116.315500	 2.335914	 36.007390	 0.175032	-1.828730	 7.428229	 1.030299	 1.931934	 2.527626	 3.936398	-9.304226	-1.745422	-4.170684	-94.539830	 58.977130	 174.105000	 20.656190	 38.592640	-22.858630	-3.906041	-2.185865	-32.407240	 1.143316	-7.494816	-7.690404	-4.851842	 20.523200	-3.064238	-3.783775	 22.703320	 2.103463	-4.723794	 6.534606	 0.088348	 0.122105	-5.415389	 0.335817	-10.851590	 2.404604	 1.513480	 89.357760	 61.896880	 178.979300	-15.137170	 52.614480	 1.834740	-6.565568	-4.030204	 13.845380	-5.950896	 11.528050	-4.072235	 6.168476	 15.847560	-0.633116	 2.897525	 35.004860	-7.869844	 2.427007	 15.331540	 2.727066
-0.065847	-2.368209	 1.150405	 7.329759	 0.503900	-4.044491	-2.541929	-10.384550	-171.587400	 2.645683	-46.859480	 1.673548	 59.867150	 82.755100	-64.628650	-2.247610	 43.887260	-0.385232	-4.123149	-42.832330	-172.822700	 10.144970	-35.864810	 6.438721	 69.695410	 77.930790	-70.538020	 2.339463	 35.587660	 0.164762	-2.982133	 7.572356	 0.628106	 1.814273	 2.760944	 3.670574	-8.750444	-1.421551	-3.910632	-94.496480	 59.261840	 174.150000	 18.565630	 37.191990	-24.069850	-4.066216	-2.178224	-33.567570	 0.536912	-8.549041	-8.222014	-4.882975	 20.641350	-3.281584	-3.760989	 22.984500	 2.080322	-4.670697	 7.149386	 0.051108	 0.208286	-5.479517	 0.265710	-10.135550	 2.887005	 1.593399	 89.355220	 61.577630	 178.984800	-14.079630	 52.567260	-0.026653	-7.725679	-4.294358	 13.699220	-6.019006	 10.944800	-5.160505	 6.215525	 13.338500	-0.268800	 3.058506	 33.136100	-8.003439	 2.894441	 12.958670	 2.561207
-0.070580	-2.409964	 1.143189	 7.838559	-0.000451	-3.175861	-2.846705	-7.308540	-173.156300	 1.389027	-46.629440	 0.753358	 33.551710	 79.733730	-36.707110	-2.094440	 51.823680	-0.654151	-2.170772	-43.618820	-172.576700	 7.010223	-32.633090	 4.207313	 23.579630	 72.815260	-20.648300	 2.338879	 35.657200	 0.166459	-4.224069	 7.776533	-0.144104	 1.626564	 3.521537	 3.477709	-8.189926	-1.310506	-3.781563	-94.431950	 59.286510	 174.284700	 17.045990	 35.769760	-25.194600	-4.372877	-2.079311	-34.951970	 0.167579	-8.445777	-8.175642	-4.895236	 20.783490	-3.399705	-3.747265	 23.152860	 2.066392	-4.613207	 7.808707	 0.010466	 0.297171	-5.456684	 0.253231	-9.386849	 3.374428	 1.977430	 89.312210	 61.405800	 178.889400	-13.361780	 52.418330	-1.266614	-8.462588	-4.423477	 13.497630	-6.334974	 10.385540	-5.400743	 6.296854	 11.241150	 0.164125	 3.191818	 31.508880	-8.112514	 3.236904	 11.182290	 2.450975
-0.076081	-2.455195	 1.134173	 8.970566	-0.752929	-2.302079	-2.951394	-3.710656	-175.054500	-0.247861	-46.169010	-0.433257	 16.555380	 71.704990	-17.187730	-1.804496	 60.396430	-1.063078	 0.480081	-45.043280	-171.489000	 7.091296	-31.499200	 4.119851	 4.549324	 61.451710	 0.609425	 2.336145	 35.980330	 0.174371	-5.824243	 8.119466	-0.824550	 1.211278	 4.527772	 3.027915	-7.608669	-1.288209	-3.536376	-94.362230	 59.081180	 174.467100	 15.935440	 34.142120	-26.266170	-4.627747	-2.029106	-36.729970	 0.220812	-7.289469	-7.988465	-4.881877	 21.001090	-3.394669	-3.722439	 23.455470	 2.041194	-4.553950	 8.481610	-0.031768	 0.383414	-5.392154	 0.283058	-8.588388	 3.978567	 2.346245	 89.169140	 61.317100	 178.555900	-12.736590	 52.189670	-2.087824	-8.498126	-4.361934	 13.289590	-6.527198	 9.822461	-4.574198	 6.350489	 9.490156	 0.419113	 3.335905	 29.664550	-8.228667	 3.494911	 9.824547	 2.374439
-0.083251	-2.506011	 1.124958	 10.224690	-1.315167	-1.311351	-2.788938	 0.092011	-177.432600	 1.303923	-45.072710	 0.673486	 7.268773	 58.299460	-6.124566	-1.033868	 70.871700	-1.973009	-0.655407	-46.460360	-172.554900	 8.158417	-30.961210	 4.614476	 0.860836	 50.702750	 4.028956	 2.349507	 34.322250	 0.134287	-7.414466	 8.287365	-1.297916	 0.511112	 5.340539	 2.032162	-6.974272	-1.201157	-2.971592	-94.243580	 59.348230	 174.680100	 15.349460	 33.035630	-27.509790	-4.325004	-2.352980	-37.895040	 0.827400	-5.952731	-8.449268	-4.820707	 21.265080	-3.119469	-3.676726	 24.006210	 1.994802	-4.504710	 9.035527	-0.067122	 0.398497	-5.337443	 0.240350	-7.775131	 4.603787	 2.495963	 89.028290	 60.857510	 178.251900	-12.127700	 51.645600	-3.073545	-7.685781	-4.247959	 13.589610	-6.055292	 9.220960	-3.259494	 6.370251	 8.618481	 0.507454	 3.390766	 28.938190	-8.272379	 3.646589	 9.019077	 2.332115
-0.091739	-2.572369	 1.116705	 10.192290	-1.627123	-0.143009	 3.963644	 4.782546	 177.185400	 1.647016	-42.776210	 0.879083	 3.824990	 42.340390	 3.385512	-1.756351	 61.414900	-1.125019	-2.922357	-45.754920	-175.884200	 6.473546	-29.690390	 3.596261	 1.340205	 44.923090	 5.239600	 2.368305	 31.538170	 0.069686	-8.437033	 8.458745	-1.771469	-0.425441	 5.144547	 0.859166	-5.957339	-0.792665	-2.296820	-94.091800	 59.869940	 174.929400	 14.922700	 32.905240	-28.155730	-3.286762	-3.192540	-38.134160	 1.700903	-5.101936	-8.795287	-4.763357	 21.498460	-2.849738	-3.619313	 24.686440	 1.936559	-4.463208	 9.498775	-0.097110	 0.336705	-5.376924	 0.175311	-6.806104	 5.067670	 2.615429	 89.008000	 60.266430	 178.239700	-11.784690	 50.990540	-4.030784	-6.557099	-3.947035	 13.578140	-5.106486	 7.949095	-1.896746	 6.400278	 9.115469	 0.623944	 3.367124	 29.252880	-8.253580	 3.656988	 8.963690	 2.329289
-0.098348	-2.637709	 1.110759	 8.711739	-2.134793	 0.793972	 9.536979	 8.705315	 172.732200	-0.395740	-41.770290	-0.498597	 6.295478	 37.257320	 2.651190	-2.374408	 30.746850	-0.050394	-2.977238	-43.494810	-179.045900	 5.510252	-30.107680	 3.153705	 1.578642	 45.530960	 6.599252	 2.374334	 30.483910	 0.045993	-8.591572	 8.965450	-2.202123	-1.341024	 4.034767	 0.033183	-4.744011	-0.075947	-1.783255	-94.034420	 59.720310	 175.077000	 14.566440	 33.325910	-26.906290	-2.630157	-3.803402	-38.812010	 1.778971	-4.858257	-8.177704	-4.725597	 21.993580	-2.777571	-3.568528	 25.277630	 1.885058	-4.412416	 10.061010	-0.134013	 0.254311	-5.404112	 0.168492	-5.905243	 5.209019	 2.784365	 89.127300	 60.275070	 178.510500	-11.956130	 50.906600	-4.180655	-5.732552	-3.492927	 12.738300	-4.324148	 6.811993	-0.796028	 6.405545	 10.481020	 0.639056	 3.258215	 30.670180	-8.166276	 3.524359	 9.668592	 2.366065
-0.105332	-2.712268	 1.106981	 7.100960	-2.732549	 1.493211	 13.406090	 11.200820	 169.171200	-3.269388	-42.828350	-2.464086	 8.757889	 42.196150	-0.407483	-2.381275	 29.432020	-0.021300	-2.723058	-41.114930	 178.198100	 5.323019	-32.315770	 3.259525	 1.206658	 49.696370	 8.016373	 2.374326	 30.485610	 0.046030	-8.645077	 9.520412	-2.395879	-2.221489	 2.545651	-0.884792	-3.390896	 0.800840	-1.043215	-93.978480	 59.458550	 175.235900	 14.600680	 34.157120	-24.782560	-2.106603	-4.306449	-39.321640	 1.329883	-5.161502	-7.605755	-4.649346	 23.034000	-2.635018	-3.511970	 25.924750	 1.827723	-4.327096	 10.994120	-0.196538	 0.157972	-5.333818	 0.096548	-4.883404	 5.207330	 2.755021	 89.355030	 60.334480	 179.026600	-12.688230	 51.031960	-3.550260	-4.618332	-2.854664	 11.321560	-3.425124	 5.443942	-0.017811	 6.388412	 12.496670	 0.550936	 3.064506	 33.064480	-8.008379	 3.267357	 11.022900	 2.441655
